<svg width="30" height="31" viewBox="0 0 30 31" fill="none" xmlns="http://www.w3.org/2000/svg">
<rect y="0.768555" width="30" height="30" rx="2" fill="#8E919A"/>
<path fill-rule="evenodd" clip-rule="evenodd" d="M7 9.01855C6.30964 9.01855 5.75 9.5782 5.75 10.2686V21.2686C5.75 21.9589 6.30964 22.5186 7 22.5186H23C23.6904 22.5186 24.25 21.9589 24.25 21.2686V10.2686C24.25 9.5782 23.6904 9.01855 23 9.01855H7ZM4.25 10.2686C4.25 8.74977 5.48122 7.51855 7 7.51855H23C24.5188 7.51855 25.75 8.74977 25.75 10.2686V21.2686C25.75 22.7873 24.5188 24.0186 23 24.0186H7C5.48122 24.0186 4.25 22.7873 4.25 21.2686V10.2686Z" fill="white"/>
<path d="M5 21V10C5 8.89543 5.89543 8 7 8H23C24.1046 8 25 8.89543 25 10V21C25 22.1046 24.1046 23 23 23H7C5.89543 23 5 22.1046 5 21Z" fill="white"/>
<path fill-rule="evenodd" clip-rule="evenodd" d="M5.06483 11.4456C5.23306 11.0671 5.67628 10.8966 6.05479 11.0648L14.6487 14.8843C14.7133 14.9131 14.7871 14.9131 14.8517 14.8843L23.4456 11.0648C23.8241 10.8966 24.2673 11.0671 24.4355 11.4456C24.6038 11.8241 24.4333 12.2673 24.0548 12.4355L15.4609 16.255C15.0084 16.4561 14.4919 16.4561 14.0394 16.255L5.44558 12.4355C5.06707 12.2673 4.8966 11.8241 5.06483 11.4456Z" fill="#8E919A"/>
<path fill-rule="evenodd" clip-rule="evenodd" d="M11.7384 15.5235C11.6579 15.4859 11.5635 15.4939 11.4905 15.5444L6.17658 19.2182C5.83587 19.4537 5.36871 19.3685 5.13315 19.0278C4.89759 18.6871 4.98284 18.2199 5.32356 17.9843L10.6375 14.3105C11.1488 13.957 11.8094 13.9013 12.3727 14.1642L14.6443 15.2243C14.7114 15.2556 14.7888 15.2556 14.8558 15.2243L17.1274 14.1642C17.6908 13.9013 18.3513 13.957 18.8627 14.3105L24.1766 17.9843C24.5173 18.2199 24.6025 18.6871 24.367 19.0278C24.1314 19.3685 23.6643 19.4537 23.3236 19.2182L18.0096 15.5444C17.9366 15.4939 17.8422 15.4859 17.7618 15.5235L15.4901 16.5836C15.021 16.8025 14.4791 16.8025 14.01 16.5836L11.7384 15.5235Z" fill="#8E919A"/>
</svg>
