<svg width="30" height="31" viewBox="0 0 30 31" fill="none" xmlns="http://www.w3.org/2000/svg">
<g clip-path="url(#clip0_131_210)">
<path d="M27.7793 0.768555H2.21484C0.990234 0.768555 0 1.73535 0 2.93066V28.6006C0 29.7959 0.990234 30.7686 2.21484 30.7686H27.7793C29.0039 30.7686 30 29.7959 30 28.6064V2.93066C30 1.73535 29.0039 0.768555 27.7793 0.768555ZM8.90039 26.333H4.44727V12.0127H8.90039V26.333ZM6.67383 10.0615C5.24414 10.0615 4.08984 8.90723 4.08984 7.4834C4.08984 6.05957 5.24414 4.90527 6.67383 4.90527C8.09766 4.90527 9.25195 6.05957 9.25195 7.4834C9.25195 8.90137 8.09766 10.0615 6.67383 10.0615ZM25.5645 26.333H21.1172V19.3721C21.1172 17.7139 21.0879 15.5752 18.8027 15.5752C16.4883 15.5752 16.1367 17.3857 16.1367 19.2549V26.333H11.6953V12.0127H15.9609V13.9697H16.0195C16.6113 12.8447 18.0645 11.6553 20.2266 11.6553C24.7324 11.6553 25.5645 14.6201 25.5645 18.4756V26.333Z" fill="#3D63C5"/>
</g>
<defs>
<clipPath id="clip0_131_210">
<rect width="30" height="30" fill="white" transform="translate(0 0.768555)"/>
</clipPath>
</defs>
</svg>
